<?xml version="1.0" encoding="UTF-8" standalone="no"?>
<!-- Created with Inkscape (http://www.inkscape.org/) -->

<svg
   xmlns:dc="http://purl.org/dc/elements/1.1/"
   xmlns:cc="http://creativecommons.org/ns#"
   xmlns:rdf="http://www.w3.org/1999/02/22-rdf-syntax-ns#"
   xmlns:svg="http://www.w3.org/2000/svg"
   xmlns="http://www.w3.org/2000/svg"
   xmlns:sodipodi="http://sodipodi.sourceforge.net/DTD/sodipodi-0.dtd"
   xmlns:inkscape="http://www.inkscape.org/namespaces/inkscape"
   width="51.585999mm"
   height="37.855mm"
   viewBox="0 0 51.585998 37.855"
   version="1.1"
   id="svg1143"
   inkscape:version="0.92.4 (5da689c313, 2019-01-14)"
   sodipodi:docname="money_box.svg">
  <defs
     id="defs1137" />
  <sodipodi:namedview
     id="base"
     pagecolor="#ffffff"
     bordercolor="#666666"
     borderopacity="1.0"
     inkscape:pageopacity="0.0"
     inkscape:pageshadow="2"
     inkscape:zoom="1"
     inkscape:cx="97.485352"
     inkscape:cy="71.537007"
     inkscape:document-units="mm"
     inkscape:current-layer="g3563"
     showgrid="false"
     inkscape:window-width="1920"
     inkscape:window-height="1017"
     inkscape:window-x="-8"
     inkscape:window-y="-8"
     inkscape:window-maximized="1" />
  <metadata
     id="metadata1140">
    <rdf:RDF>
      <cc:Work
         rdf:about="">
        <dc:format>image/svg+xml</dc:format>
        <dc:type
           rdf:resource="http://purl.org/dc/dcmitype/StillImage" />
        <dc:title></dc:title>
      </cc:Work>
    </rdf:RDF>
  </metadata>
  <g
     inkscape:label="Camada 1"
     inkscape:groupmode="layer"
     id="layer1"
     transform="translate(0,-259.145)">
    <g
       style="display:inline;enable-background:new"
       id="g1041"
       transform="matrix(1.3516228,0,0,1.3516228,-170.96203,259.32589)">
      <g
         transform="matrix(0.13861047,0,0,0.13861047,21.585802,96.298231)"
         id="g3759"
         style="stroke:#000000;stroke-width:0.36072311;stroke-miterlimit:4;stroke-dasharray:none;stroke-opacity:1">
        <path
           style="fill:#800000;stroke:#000000;stroke-width:0.36072311;stroke-miterlimit:4;stroke-dasharray:none;stroke-opacity:1"
           inkscape:connector-curvature="0"
           d="m 974.47,-619.26 -81.102,-40.577 27.042,-33.53 81.102,40.577 z"
           id="path3723" />
        <path
           style="fill:#800000;stroke:#000000;stroke-width:0.36072311;stroke-miterlimit:4;stroke-dasharray:none;stroke-opacity:1"
           inkscape:connector-curvature="0"
           d="m 812.27,-619.79 81.102,-40.577 -25.298,-33.53 -81.102,40.577 z"
           id="path3725" />
        <path
           style="fill:#7ca6db;fill-opacity:1;stroke:#000000;stroke-width:0.36072311;stroke-miterlimit:4;stroke-dasharray:none;stroke-opacity:1"
           inkscape:connector-curvature="0"
           d="m 974.47,-621.37 -81.102,-40.577 27.042,-33.53 81.102,40.577 z"
           id="path3737" />
        <path
           style="fill:#3370be;fill-opacity:1;stroke:#000000;stroke-width:0.36072311;stroke-miterlimit:4;stroke-dasharray:none;stroke-opacity:1"
           inkscape:connector-curvature="0"
           d="m 974.47,-534.53 v -86.843 l -81.102,-40.577 v 88.714 z"
           id="path3727" />
        <path
           style="fill:#2b1100;stroke:#000000;stroke-width:0.36072311;stroke-miterlimit:4;stroke-dasharray:none;stroke-opacity:1"
           inkscape:connector-curvature="0"
           d="m 893.37,-499.64 81.102,-40.577 -81.102,-40.577 -81.102,40.577 z"
           id="path3729" />
        <path
           style="fill:#7ca6db;fill-opacity:1;stroke:#000000;stroke-width:0.36072311;stroke-miterlimit:4;stroke-dasharray:none;stroke-opacity:1"
           inkscape:connector-curvature="0"
           d="m 812.27,-621.37 81.102,-40.577 -25.298,-33.53 -81.102,40.577 z"
           id="path3739" />
        <path
           style="fill:#3370be;fill-opacity:1;stroke:#000000;stroke-width:0.36072311;stroke-miterlimit:4;stroke-dasharray:none;stroke-opacity:1"
           inkscape:connector-curvature="0"
           d="m 812.36,-536.11 82.104,-38.071 -1.0904,-87.767 -81.102,40.577 z"
           id="path3731" />
        <g
           transform="matrix(0.23307706,0,0,0.23307706,830.52833,-664.92692)"
           id="g4844"
           style="stroke:#000000;stroke-width:1.54765606;stroke-miterlimit:4;stroke-dasharray:none;stroke-opacity:1">
          <path
             inkscape:connector-curvature="0"
             style="fill:#427b32;fill-opacity:1;stroke:#000000;stroke-width:1.54765606;stroke-miterlimit:4;stroke-dasharray:none;stroke-opacity:1"
             d="M 87.258,111.458 286.544,72.073 c 5.908,-1.182 11.422,2.757 12.603,8.271 l 77.982,371.791 c 1.182,5.908 -2.757,11.422 -8.271,12.603 l -199.68,39.385 c -5.908,1.182 -11.422,-2.757 -12.603,-8.271 L 78.988,124.062 c -1.182,-5.908 2.363,-11.422 8.27,-12.604 z"
             id="path4774" />
          <path
             inkscape:connector-curvature="0"
             style="fill:#4b9587;stroke:#000000;stroke-width:1.54765606;stroke-miterlimit:4;stroke-dasharray:none;stroke-opacity:1"
             d="M 297.178,185.895 279.061,97.28 c -0.394,-2.757 -3.545,-4.726 -6.302,-4.332 l -168.566,33.477 c -2.757,0.394 -4.726,3.545 -4.332,6.302 l 18.117,88.615 c 0.394,2.757 3.545,4.726 6.302,4.332 2.757,-0.394 4.726,-3.545 4.332,-6.302 l -16.935,-83.495 157.932,-31.508 16.935,83.495 c 0.394,2.757 3.545,4.726 6.302,4.332 2.757,-0.787 4.726,-3.544 4.332,-6.301 z"
             id="path4776" />
          <path
             inkscape:connector-curvature="0"
             style="fill:#4f953c;fill-opacity:1;stroke:#000000;stroke-width:1.54765606;stroke-miterlimit:4;stroke-dasharray:none;stroke-opacity:1"
             d="M 138.064,49.625 340.501,29.933 c 5.908,-0.394 11.028,3.545 11.815,9.452 l 48.443,396.997 c 0.394,5.908 -3.545,11.028 -9.452,11.422 L 188.87,467.496 c -5.908,0.394 -11.028,-3.545 -11.815,-9.452 L 128.612,61.046 c -0.394,-5.514 3.939,-11.028 9.452,-11.421 z"
             id="path4778" />
          <path
             inkscape:connector-curvature="0"
             style="fill:#53a697;stroke:#000000;stroke-width:1.54765606;stroke-miterlimit:4;stroke-dasharray:none;stroke-opacity:1"
             d="m 330.655,54.351 c -0.394,-2.757 -2.757,-5.12 -5.908,-4.726 L 153.818,66.166 c -2.757,0.394 -5.12,2.757 -4.726,5.908 l 9.058,90.191 c 0.394,2.757 2.757,5.12 5.908,4.726 2.757,-0.394 5.12,-2.757 4.726,-5.908 l -8.271,-84.677 160.295,-15.36 8.271,84.677 c 0.394,2.757 2.757,5.12 5.908,4.726 2.757,-0.394 5.12,-2.757 4.726,-5.908 10e-4,0.001 -9.058,-90.19 -9.058,-90.19 z"
             id="path4780" />
          <path
             inkscape:connector-curvature="0"
             style="fill:#63b84c;fill-opacity:1;stroke:#000000;stroke-width:1.54765606;stroke-miterlimit:4;stroke-dasharray:none;stroke-opacity:1"
             d="m 207.775,0 h 206.769 c 5.908,0 11.028,4.726 11.028,11.028 v 411.569 c 0,5.908 -4.726,11.028 -11.028,11.028 H 207.775 c -5.908,0 -11.028,-4.726 -11.028,-11.028 V 11.028 C 196.748,4.726 201.474,0 207.775,0 Z"
             id="path4782" />
          <path
             inkscape:connector-curvature="0"
             style="fill:#81cec0;stroke:#000000;stroke-width:1.54765606;stroke-miterlimit:4;stroke-dasharray:none;stroke-opacity:1"
             d="m 232.194,216.615 c 0,43.717 35.446,78.769 78.769,78.769 43.323,0 78.769,-35.446 78.769,-78.769 0,-43.323 -35.446,-78.769 -78.769,-78.769 -43.323,0 -78.769,35.446 -78.769,78.769 z m 36.627,-1.969 h 5.908 c 1.182,-9.846 6.695,-17.329 12.603,-20.48 0.788,-0.394 1.969,-0.788 2.757,-0.788 3.151,0 5.514,2.363 5.514,5.12 0,2.363 -1.182,3.545 -2.363,4.332 -4.332,4.332 -7.877,9.452 -7.877,16.542 0,9.058 3.151,13.391 9.452,13.391 15.36,0 8.271,-36.628 33.477,-36.628 9.452,0 17.329,5.514 18.905,18.511 h 5.908 c 2.757,0 5.12,1.969 5.12,4.726 0,2.757 -2.363,4.726 -5.12,4.726 h -5.908 c -1.182,7.877 -4.332,14.572 -9.452,18.117 -0.788,0.788 -1.969,1.182 -3.545,1.182 -3.151,0 -5.514,-2.363 -5.514,-5.514 0,-1.575 0.788,-2.757 2.363,-4.332 3.151,-3.151 5.514,-8.271 5.514,-14.178 0,-8.271 -3.938,-11.422 -8.271,-11.422 -13.785,0 -7.483,36.628 -33.477,36.628 -11.422,0 -18.905,-7.089 -20.48,-20.48 h -5.908 c -2.757,0 -5.12,-1.969 -5.12,-4.726 0.394,-2.758 2.757,-4.727 5.514,-4.727 z m 130.757,120.123 c -3.151,0 -5.908,2.757 -5.908,5.908 v 61.046 H 228.255 v -61.046 c 0,-3.151 -2.757,-5.908 -5.908,-5.908 -3.151,0 -5.908,2.757 -5.908,5.908 v 66.954 c 0,3.151 2.757,5.908 5.908,5.908 h 177.231 c 3.151,0 5.908,-2.757 5.908,-5.908 v -66.954 c 0,-3.151 -2.757,-5.908 -5.908,-5.908 z m 0,-315.077 h -177.23 c -3.151,0 -5.908,2.757 -5.908,5.908 v 66.954 c 0,3.151 2.757,5.908 5.908,5.908 3.151,0 5.908,-2.757 5.908,-5.908 V 31.508 h 165.415 v 61.046 c 0,3.151 2.757,5.908 5.908,5.908 3.151,0 5.908,-2.757 5.908,-5.908 V 25.6 c -0.001,-3.151 -2.758,-5.908 -5.909,-5.908 z m -100.43,330.831 c 0,6.695 5.12,11.815 11.815,11.815 6.695,0 11.815,-5.12 11.815,-11.815 0,-6.695 -5.12,-11.815 -11.815,-11.815 -6.695,0 -11.815,5.514 -11.815,11.815 z m 23.63,-267.815 c 0,-6.695 -5.12,-11.815 -11.815,-11.815 -6.695,0 -11.815,5.12 -11.815,11.815 0,6.695 5.12,11.815 11.815,11.815 6.695,0 11.815,-5.12 11.815,-11.815 z"
             id="path4784" />
          <g
             id="g4786"
             style="stroke:#000000;stroke-width:1.54765606;stroke-miterlimit:4;stroke-dasharray:none;stroke-opacity:1" />
          <g
             id="g4788"
             style="stroke:#000000;stroke-width:1.54765606;stroke-miterlimit:4;stroke-dasharray:none;stroke-opacity:1" />
          <g
             id="g4790"
             style="stroke:#000000;stroke-width:1.54765606;stroke-miterlimit:4;stroke-dasharray:none;stroke-opacity:1" />
          <g
             id="g4792"
             style="stroke:#000000;stroke-width:1.54765606;stroke-miterlimit:4;stroke-dasharray:none;stroke-opacity:1" />
          <g
             id="g4794"
             style="stroke:#000000;stroke-width:1.54765606;stroke-miterlimit:4;stroke-dasharray:none;stroke-opacity:1" />
          <g
             id="g4796"
             style="stroke:#000000;stroke-width:1.54765606;stroke-miterlimit:4;stroke-dasharray:none;stroke-opacity:1" />
          <g
             id="g4798"
             style="stroke:#000000;stroke-width:1.54765606;stroke-miterlimit:4;stroke-dasharray:none;stroke-opacity:1" />
          <g
             id="g4800"
             style="stroke:#000000;stroke-width:1.54765606;stroke-miterlimit:4;stroke-dasharray:none;stroke-opacity:1" />
          <g
             id="g4802"
             style="stroke:#000000;stroke-width:1.54765606;stroke-miterlimit:4;stroke-dasharray:none;stroke-opacity:1" />
          <g
             id="g4804"
             style="stroke:#000000;stroke-width:1.54765606;stroke-miterlimit:4;stroke-dasharray:none;stroke-opacity:1" />
          <g
             id="g4806"
             style="stroke:#000000;stroke-width:1.54765606;stroke-miterlimit:4;stroke-dasharray:none;stroke-opacity:1" />
          <g
             id="g4808"
             style="stroke:#000000;stroke-width:1.54765606;stroke-miterlimit:4;stroke-dasharray:none;stroke-opacity:1" />
          <g
             id="g4810"
             style="stroke:#000000;stroke-width:1.54765606;stroke-miterlimit:4;stroke-dasharray:none;stroke-opacity:1" />
          <g
             id="g4812"
             style="stroke:#000000;stroke-width:1.54765606;stroke-miterlimit:4;stroke-dasharray:none;stroke-opacity:1" />
          <g
             id="g4814"
             style="stroke:#000000;stroke-width:1.54765606;stroke-miterlimit:4;stroke-dasharray:none;stroke-opacity:1" />
        </g>
        <path
           style="fill:#7ca6db;fill-opacity:1;stroke:#000000;stroke-width:0.36072311;stroke-miterlimit:4;stroke-dasharray:none;stroke-opacity:1"
           inkscape:connector-curvature="0"
           d="m 893.37,-493.94 81.102,-40.577 v -86.86 L 893.37,-580.8 Z"
           id="path3733" />
        <path
           style="fill:#417ecc;fill-opacity:1;stroke:#000000;stroke-width:0.36072311;stroke-miterlimit:4;stroke-dasharray:none;stroke-opacity:1"
           inkscape:connector-curvature="0"
           d="m 893.37,-493.94 v -86.86 l -81.102,-40.577 v 86.86 z"
           id="path3735" />
        <path
           style="fill:#7ca6db;fill-opacity:1;stroke:#000000;stroke-width:0.36072311;stroke-miterlimit:4;stroke-dasharray:none;stroke-opacity:1"
           inkscape:connector-curvature="0"
           d="m 893.37,-580.8 -37.51,-2.9136 -81.102,-40.577 37.51,2.9136 z"
           id="path3741" />
        <path
           style="fill:#ff6600;stroke:#000000;stroke-width:0.36072311;stroke-miterlimit:4;stroke-dasharray:none;stroke-opacity:1"
           inkscape:connector-curvature="0"
           d="m 893.37,-580.8 81.102,-40.577 47.106,-3.2916 -81.102,40.577 z"
           id="path3743" />
        <path
           style="fill:#7ca6db;fill-opacity:1;stroke:#000000;stroke-width:0.36072311;stroke-miterlimit:4;stroke-dasharray:none;stroke-opacity:1"
           inkscape:connector-curvature="0"
           d="m 893.37,-580.8 81.102,-40.577 47.106,-3.2916 -81.102,40.577 z"
           id="path3745" />
        <path
           style="fill:#285996;fill-opacity:1;fill-rule:evenodd;stroke:#000000;stroke-width:0.36072311;stroke-miterlimit:4;stroke-dasharray:none;stroke-opacity:1"
           inkscape:connector-curvature="0"
           d="m 893.37,-580.8 v 1.5875 l 47.106,-3.2916 v -1.5875 z"
           id="path3747" />
        <path
           style="fill:#285996;fill-opacity:1;fill-rule:evenodd;stroke:#000000;stroke-width:0.36072311;stroke-miterlimit:4;stroke-dasharray:none;stroke-opacity:1"
           inkscape:connector-curvature="0"
           d="m 940.48,-584.09 81.102,-40.577 v 1.5875 l -81.102,40.577 z"
           id="path3749" />
        <path
           style="fill:#285996;fill-opacity:1;fill-rule:evenodd;stroke:#000000;stroke-width:0.36072311;stroke-miterlimit:4;stroke-dasharray:none;stroke-opacity:1"
           inkscape:connector-curvature="0"
           d="m 774.76,-624.29 v 1.5875 l 81.102,40.577 v -1.5875 z"
           id="path3751" />
        <path
           style="fill:#285996;fill-opacity:1;fill-rule:evenodd;stroke:#000000;stroke-width:0.36072311;stroke-miterlimit:4;stroke-dasharray:none;stroke-opacity:1"
           inkscape:connector-curvature="0"
           d="m 855.86,-583.71 v 1.5875 l 37.51,2.9136 -6.1e-4,-1.5875 z"
           id="path3753" />
        <path
           style="fill:#285996;fill-opacity:1;fill-rule:evenodd;stroke:#000000;stroke-width:0.36072311;stroke-miterlimit:4;stroke-dasharray:none;stroke-opacity:1"
           inkscape:connector-curvature="0"
           d="m 812.27,-621.37 -1.2723,-0.0988 -24.025,-31.843 v -1.5875 z"
           id="path3755" />
        <path
           style="fill:#285996;fill-opacity:1;fill-rule:evenodd;stroke:#000000;stroke-width:0.36072311;stroke-miterlimit:4;stroke-dasharray:none;stroke-opacity:1"
           inkscape:connector-curvature="0"
           d="m 1001.5,-654.9 v 2.1167 l -25.233,31.287 -1.809,0.12637 z"
           id="path3757" />
      </g>
      <g
         id="g3563"
         transform="translate(-4.3310547e-6,-4.0155667)">
        <rect
           ry="0"
           y="21.778337"
           x="126.5295"
           height="7.7075996"
           width="38.080124"
           id="rect3547"
           style="opacity:1;fill:#ffffff;fill-opacity:1;stroke:#000000;stroke-width:0.08600354;stroke-miterlimit:4;stroke-dasharray:none;stroke-opacity:1" />
        <g
           id="g5312"
           transform="matrix(1.1500253,0,0,1.1500253,-107.74326,-17.0967)"
           style="fill:#cb3939;fill-opacity:1">
          <g
             style="fill:#cb3939;fill-opacity:1"
             transform="translate(0.50300202,10.961848)"
             id="g5278">
            <g
               style="fill:#cb3939;fill-opacity:1"
               transform="translate(39.735491,-17.353425)"
               id="g5282">
              <text
                 id="text5141-5"
                 y="44.904732"
                 x="167.0695"
                 style="font-style:normal;font-weight:normal;font-size:10.58333302px;line-height:1.25;font-family:sans-serif;letter-spacing:0px;word-spacing:0px;fill:#cb3939;fill-opacity:1;stroke:none;stroke-width:0.26458332"
                 xml:space="preserve"><tspan
                   style="font-size:5.21486092px;fill:#cb3939;fill-opacity:1;stroke-width:0.26458332"
                   y="44.904732"
                   x="167.0695"
                   id="tspan5139-0"
                   sodipodi:role="line">Money Box</tspan></text>
            </g>
          </g>
        </g>
      </g>
    </g>
  </g>
</svg>
